<svg width="269" height="16" viewBox="0 0 269 16" fill="none" xmlns="http://www.w3.org/2000/svg">
<path d="M0.264205 15V0.454545H6.00284C7.10606 0.454545 8.04593 0.665246 8.82244 1.08665C9.59896 1.50331 10.1908 2.08333 10.598 2.8267C11.0099 3.56534 11.2159 4.41761 11.2159 5.38352C11.2159 6.34943 11.0076 7.2017 10.5909 7.94034C10.1742 8.67898 9.57055 9.25426 8.77983 9.66619C7.99384 10.0781 7.04214 10.2841 5.92472 10.2841H2.26705V7.8196H5.42756C6.01941 7.8196 6.5071 7.7178 6.89062 7.5142C7.27888 7.30587 7.56771 7.01941 7.7571 6.65483C7.95123 6.28551 8.0483 5.86174 8.0483 5.38352C8.0483 4.90057 7.95123 4.47917 7.7571 4.11932C7.56771 3.75473 7.27888 3.47301 6.89062 3.27415C6.50237 3.07055 6.00994 2.96875 5.41335 2.96875H3.33949V15H0.264205ZM15.2134 15V0.454545H20.9521C22.0505 0.454545 22.988 0.651041 23.7646 1.04403C24.5458 1.43229 25.14 1.9839 25.5472 2.69886C25.9592 3.40909 26.1651 4.24479 26.1651 5.20597C26.1651 6.17187 25.9568 7.00284 25.5401 7.69886C25.1235 8.39015 24.5198 8.92045 23.729 9.28977C22.9431 9.65909 21.9914 9.84375 20.8739 9.84375H17.0316V7.37216H20.3768C20.9639 7.37216 21.4516 7.29167 21.8398 7.13068C22.2281 6.9697 22.5169 6.72822 22.7063 6.40625C22.9004 6.08428 22.9975 5.68419 22.9975 5.20597C22.9975 4.72301 22.9004 4.31581 22.7063 3.98438C22.5169 3.65294 22.2257 3.40199 21.8327 3.23153C21.4445 3.05634 20.9544 2.96875 20.3626 2.96875H18.2887V15H15.2134ZM23.0685 8.38068L26.6836 15H23.2887L19.7518 8.38068H23.0685ZM43.7049 7.72727C43.7049 9.31345 43.4042 10.6629 42.8029 11.7756C42.2063 12.8883 41.3919 13.7382 40.3597 14.3253C39.3323 14.9077 38.177 15.1989 36.8938 15.1989C35.6012 15.1989 34.4412 14.9053 33.4137 14.3182C32.3862 13.7311 31.5742 12.8812 30.9776 11.7685C30.381 10.6558 30.0827 9.30871 30.0827 7.72727C30.0827 6.1411 30.381 4.79167 30.9776 3.67898C31.5742 2.56629 32.3862 1.71875 33.4137 1.13636C34.4412 0.549242 35.6012 0.255681 36.8938 0.255681C38.177 0.255681 39.3323 0.549242 40.3597 1.13636C41.3919 1.71875 42.2063 2.56629 42.8029 3.67898C43.4042 4.79167 43.7049 6.1411 43.7049 7.72727ZM40.587 7.72727C40.587 6.69981 40.4331 5.83333 40.1254 5.12784C39.8223 4.42235 39.3938 3.88731 38.8398 3.52273C38.2859 3.15814 37.6372 2.97585 36.8938 2.97585C36.1504 2.97585 35.5018 3.15814 34.9478 3.52273C34.3938 3.88731 33.9629 4.42235 33.6552 5.12784C33.3522 5.83333 33.2006 6.69981 33.2006 7.72727C33.2006 8.75473 33.3522 9.62121 33.6552 10.3267C33.9629 11.0322 34.3938 11.5672 34.9478 11.9318C35.5018 12.2964 36.1504 12.4787 36.8938 12.4787C37.6372 12.4787 38.2859 12.2964 38.8398 11.9318C39.3938 11.5672 39.8223 11.0322 40.1254 10.3267C40.4331 9.62121 40.587 8.75473 40.587 7.72727ZM53.1392 15H47.983V0.454545H53.1818C54.6449 0.454545 55.9044 0.745738 56.9602 1.32812C58.0161 1.90578 58.8281 2.73674 59.3963 3.82102C59.9692 4.9053 60.2557 6.20265 60.2557 7.71307C60.2557 9.22822 59.9692 10.5303 59.3963 11.6193C58.8281 12.7083 58.0114 13.544 56.946 14.1264C55.8854 14.7088 54.6165 15 53.1392 15ZM51.0582 12.3651H53.0114C53.9205 12.3651 54.6851 12.2041 55.3054 11.8821C55.9304 11.5554 56.3991 11.0511 56.7116 10.3693C57.0289 9.68277 57.1875 8.79735 57.1875 7.71307C57.1875 6.63826 57.0289 5.75994 56.7116 5.07812C56.3991 4.39631 55.9328 3.89441 55.3125 3.57244C54.6922 3.25047 53.9276 3.08949 53.0185 3.08949H51.0582V12.3651ZM73.5181 0.454545H76.5934V9.90057C76.5934 10.9612 76.3401 11.8892 75.8335 12.6847C75.3316 13.4801 74.6284 14.1004 73.7241 14.5455C72.8197 14.9858 71.7662 15.206 70.5636 15.206C69.3562 15.206 68.3003 14.9858 67.396 14.5455C66.4916 14.1004 65.7885 13.4801 65.2866 12.6847C64.7847 11.8892 64.5337 10.9612 64.5337 9.90057V0.454545H67.609V9.63778C67.609 10.1918 67.7298 10.6842 67.9712 11.1151C68.2174 11.5459 68.5631 11.8845 69.0082 12.1307C69.4532 12.3769 69.9717 12.5 70.5636 12.5C71.1602 12.5 71.6786 12.3769 72.119 12.1307C72.564 11.8845 72.9073 11.5459 73.1488 11.1151C73.395 10.6842 73.5181 10.1918 73.5181 9.63778V0.454545ZM93.9574 5.54688H90.8466C90.7898 5.14441 90.6738 4.78693 90.4986 4.47443C90.3234 4.1572 90.0985 3.88731 89.8239 3.66477C89.5492 3.44223 89.232 3.27178 88.8722 3.15341C88.517 3.03504 88.1312 2.97585 87.7145 2.97585C86.9616 2.97585 86.3059 3.16288 85.7472 3.53693C85.1884 3.90625 84.7552 4.44602 84.4474 5.15625C84.1397 5.86174 83.9858 6.71875 83.9858 7.72727C83.9858 8.7642 84.1397 9.63542 84.4474 10.3409C84.7599 11.0464 85.1955 11.5791 85.7543 11.9389C86.313 12.2988 86.9593 12.4787 87.6932 12.4787C88.1051 12.4787 88.4863 12.4242 88.8366 12.3153C89.1918 12.2064 89.5066 12.0478 89.7812 11.8395C90.0559 11.6264 90.2831 11.3684 90.4631 11.0653C90.6477 10.7623 90.7756 10.4167 90.8466 10.0284L93.9574 10.0426C93.8769 10.7102 93.6757 11.3542 93.3537 11.9744C93.0365 12.59 92.608 13.1416 92.0682 13.6293C91.5331 14.1122 90.8939 14.4957 90.1506 14.7798C89.4119 15.0592 88.5762 15.1989 87.6435 15.1989C86.3461 15.1989 85.1861 14.9053 84.1634 14.3182C83.1454 13.7311 82.3404 12.8812 81.7486 11.7685C81.1615 10.6558 80.8679 9.30871 80.8679 7.72727C80.8679 6.1411 81.1662 4.79167 81.7628 3.67898C82.3594 2.56629 83.169 1.71875 84.1918 1.13636C85.2145 0.549242 86.3651 0.255681 87.6435 0.255681C88.4863 0.255681 89.2675 0.374053 89.9872 0.610795C90.7116 0.847538 91.3532 1.19318 91.9119 1.64773C92.4706 2.09754 92.9252 2.64915 93.2756 3.30256C93.6307 3.95597 93.858 4.70407 93.9574 5.54688ZM97.6087 2.99006V0.454545H109.555V2.99006H105.102V15H102.062V2.99006H97.6087ZM120.151 15V0.454545H129.782V2.99006H123.226V6.45597H129.142V8.99148H123.226V15H120.151ZM136.925 0.454545V15H133.85V0.454545H136.925ZM141.456 15V0.454545H144.531V12.4645H150.767V15H141.456ZM152.433 2.99006V0.454545H164.379V2.99006H159.926V15H156.886V2.99006H152.433ZM168.346 15V0.454545H178.147V2.99006H171.422V6.45597H177.643V8.99148H171.422V12.4645H178.176V15H168.346ZM182.592 15V0.454545H188.331C189.429 0.454545 190.367 0.651041 191.143 1.04403C191.925 1.43229 192.519 1.9839 192.926 2.69886C193.338 3.40909 193.544 4.24479 193.544 5.20597C193.544 6.17187 193.336 7.00284 192.919 7.69886C192.502 8.39015 191.899 8.92045 191.108 9.28977C190.322 9.65909 189.37 9.84375 188.253 9.84375H184.411V7.37216H187.756C188.343 7.37216 188.83 7.29167 189.219 7.13068C189.607 6.9697 189.896 6.72822 190.085 6.40625C190.279 6.08428 190.376 5.68419 190.376 5.20597C190.376 4.72301 190.279 4.31581 190.085 3.98438C189.896 3.65294 189.605 3.40199 189.212 3.23153C188.823 3.05634 188.333 2.96875 187.741 2.96875H185.668V15H182.592ZM190.447 8.38068L194.062 15H190.668L187.131 8.38068H190.447ZM209.502 15H204.346V0.454545H209.545C211.008 0.454545 212.268 0.745738 213.324 1.32812C214.379 1.90578 215.191 2.73674 215.76 3.82102C216.333 4.9053 216.619 6.20265 216.619 7.71307C216.619 9.22822 216.333 10.5303 215.76 11.6193C215.191 12.7083 214.375 13.544 213.309 14.1264C212.249 14.7088 210.98 15 209.502 15ZM207.422 12.3651H209.375C210.284 12.3651 211.048 12.2041 211.669 11.8821C212.294 11.5554 212.762 11.0511 213.075 10.3693C213.392 9.68277 213.551 8.79735 213.551 7.71307C213.551 6.63826 213.392 5.75994 213.075 5.07812C212.762 4.39631 212.296 3.89441 211.676 3.57244C211.056 3.25047 210.291 3.08949 209.382 3.08949H207.422V12.3651ZM220.897 15V0.454545H230.698V2.99006H223.972V6.45597H230.194V8.99148H223.972V12.4645H230.727V15H220.897ZM235.143 0.454545H238.936L242.941 10.2273H243.112L247.118 0.454545H250.91V15H247.927V5.53267H247.806L244.042 14.929H242.011L238.247 5.49716H238.126V15H235.143V0.454545ZM268.81 7.72727C268.81 9.31345 268.51 10.6629 267.908 11.7756C267.312 12.8883 266.497 13.7382 265.465 14.3253C264.438 14.9077 263.282 15.1989 261.999 15.1989C260.707 15.1989 259.547 14.9053 258.519 14.3182C257.492 13.7311 256.68 12.8812 256.083 11.7685C255.487 10.6558 255.188 9.30871 255.188 7.72727C255.188 6.1411 255.487 4.79167 256.083 3.67898C256.68 2.56629 257.492 1.71875 258.519 1.13636C259.547 0.549242 260.707 0.255681 261.999 0.255681C263.282 0.255681 264.438 0.549242 265.465 1.13636C266.497 1.71875 267.312 2.56629 267.908 3.67898C268.51 4.79167 268.81 6.1411 268.81 7.72727ZM265.692 7.72727C265.692 6.69981 265.539 5.83333 265.231 5.12784C264.928 4.42235 264.499 3.88731 263.945 3.52273C263.391 3.15814 262.743 2.97585 261.999 2.97585C261.256 2.97585 260.607 3.15814 260.053 3.52273C259.499 3.88731 259.068 4.42235 258.761 5.12784C258.458 5.83333 258.306 6.69981 258.306 7.72727C258.306 8.75473 258.458 9.62121 258.761 10.3267C259.068 11.0322 259.499 11.5672 260.053 11.9318C260.607 12.2964 261.256 12.4787 261.999 12.4787C262.743 12.4787 263.391 12.2964 263.945 11.9318C264.499 11.5672 264.928 11.0322 265.231 10.3267C265.539 9.62121 265.692 8.75473 265.692 7.72727Z" fill="#0E3241"/>
</svg>
